<?xml version="1.0" encoding="utf-8"?>
<!-- Generator: Adobe Illustrator 23.0.1, SVG Export Plug-In . SVG Version: 6.00 Build 0)  -->
<svg version="1.1" id="Layer_1" xmlns="http://www.w3.org/2000/svg" xmlns:xlink="http://www.w3.org/1999/xlink" x="0px" y="0px"
	 viewBox="0 0 3425 1711" style="enable-background:new 0 0 3425 1711;" xml:space="preserve">
<style type="text/css">
	.st0{fill:#FFFF22;}
</style>
  <clipPath id="myClip">
<polygon class="st0" points="547,398.1 572.3,399.2 611.9,399.2 628.5,398.6 665,399.2 699.8,399.2 742.6,398.6 800,400.4 
	805.4,358.1 811.4,321.8 814.5,306.9 815.3,298.8 815.3,297 798.8,297 796.5,294.9 793.6,294.9 787.4,292.8 786.3,285.6 
	792.3,257.4 794.6,237.9 799,218.2 800.2,205.1 766.8,205.9 727.6,206.5 704.2,206.3 678.9,207.2 674.5,233.3 670.8,246.1 
	667.5,269 665,280.2 661,295.1 656.3,296.6 642.2,297.2 616.5,296.8 599.7,297.4 586.6,297.6 571.5,299.4 565.9,324.8 562.1,338.4 
	559,355.5 554,371.8 550.9,386.4 "/>
	</clipPath>
</svg>
